<svg id="Layer_1" data-name="Layer 1" xmlns="http://www.w3.org/2000/svg" viewBox="0 0 313.32 139.11"><defs><style>.cls-1{fill:#111;}</style></defs><polygon class="cls-1" points="154.43 29.09 155.84 0 196.08 69.71 177.96 69.71 154.43 29.09"/><polygon class="cls-1" points="133.72 69.71 115.59 69.71 155.84 0 155.84 31.39 133.72 69.71"/><polygon class="cls-1" points="155.84 55.16 147.36 69.84 155.84 69.84 164.32 69.84 155.84 55.16"/><path class="cls-1" d="M18.87,101.44a12.84,12.84,0,0,1,3-1.12A16.11,16.11,0,0,1,26,99.8a14.54,14.54,0,0,1,5.18.85,4.5,4.5,0,0,1,2.9,2.66q1.05,3,2.28,7.08t2.46,8.35q1.23,4.31,2.4,8.49c.78,2.79,1.46,5.25,2,7.4A4.79,4.79,0,0,1,41.12,136a11.57,11.57,0,0,1-5.71.26,4.35,4.35,0,0,1-1.58-.7,3.37,3.37,0,0,1-1-1.23,10.44,10.44,0,0,1-.68-1.76l-1-4H20.51q-.47,1.76-.93,3.63c-.32,1.25-.63,2.46-.94,3.63a14.56,14.56,0,0,1-1.73.5,9.79,9.79,0,0,1-2.19.21,7.66,7.66,0,0,1-4.42-1,3.29,3.29,0,0,1-1.44-2.84,5.87,5.87,0,0,1,.24-1.64c.15-.54.33-1.19.52-1.93.28-1,.66-2.36,1.15-3.92s1-3.25,1.61-5.07,1.21-3.67,1.87-5.59,1.29-3.71,1.87-5.41,1.12-3.21,1.61-4.54S18.6,102.14,18.87,101.44Zm7.23,7.2c-.54,1.64-1.16,3.46-1.84,5.47s-1.3,4-1.84,6.12h7.26q-.83-3.17-1.67-6.18t-1.55-5.41Z" transform="translate(-8.86 -7.37)"/><path class="cls-1" d="M44.42,121.57A17.07,17.07,0,0,1,45.57,115a12.53,12.53,0,0,1,3.19-4.63,13.15,13.15,0,0,1,4.76-2.72,18.69,18.69,0,0,1,5.89-.89,11.81,11.81,0,0,1,2.24.2,8.77,8.77,0,0,1,1.78.48v-9.3a15.53,15.53,0,0,1,1.84-.37,16.84,16.84,0,0,1,2.58-.2,14.1,14.1,0,0,1,2.27.17,3.85,3.85,0,0,1,1.69.69,3.08,3.08,0,0,1,1,1.41,6.53,6.53,0,0,1,.34,2.32v27.22a4.91,4.91,0,0,1-2.52,4.31,17.43,17.43,0,0,1-4.31,1.92,20.1,20.1,0,0,1-6.09.84,20.16,20.16,0,0,1-6.69-1,13.53,13.53,0,0,1-5-3,13,13,0,0,1-3.11-4.68A17.11,17.11,0,0,1,44.42,121.57Zm16.31-7.18A6.24,6.24,0,0,0,56,116.17q-1.66,1.78-1.66,5.4a8.06,8.06,0,0,0,1.55,5.37,5.56,5.56,0,0,0,4.48,1.81,5,5,0,0,0,1.86-.32,4.45,4.45,0,0,0,1.3-.71V115.08A5.28,5.28,0,0,0,60.73,114.39Z" transform="translate(-8.86 -7.37)"/><path class="cls-1" d="M76.93,121.57A17.27,17.27,0,0,1,78.07,115a12.65,12.65,0,0,1,3.19-4.63A13.11,13.11,0,0,1,86,107.65a18.67,18.67,0,0,1,5.88-.89,11.74,11.74,0,0,1,2.24.2,8.77,8.77,0,0,1,1.78.48v-9.3a16.47,16.47,0,0,1,1.84-.37,16.88,16.88,0,0,1,2.59-.2,14,14,0,0,1,2.26.17,3.89,3.89,0,0,1,1.7.69,3.06,3.06,0,0,1,1,1.41,6.51,6.51,0,0,1,.35,2.32v27.22a4.92,4.92,0,0,1-2.53,4.31,17.26,17.26,0,0,1-4.31,1.92,22.22,22.22,0,0,1-12.77-.2,13.57,13.57,0,0,1-5-3,13,13,0,0,1-3.1-4.68A16.9,16.9,0,0,1,76.93,121.57Zm16.3-7.18a6.23,6.23,0,0,0-4.76,1.78,7.68,7.68,0,0,0-1.67,5.4,8.06,8.06,0,0,0,1.55,5.37,5.58,5.58,0,0,0,4.48,1.81,5.06,5.06,0,0,0,1.87-.32,4.52,4.52,0,0,0,1.29-.71V115.08A5.26,5.26,0,0,0,93.23,114.39Z" transform="translate(-8.86 -7.37)"/><path class="cls-1" d="M127.88,109.08a15.08,15.08,0,0,1,2-.67,10.18,10.18,0,0,1,2.78-.38,10,10,0,0,1,4.1.73,3.21,3.21,0,0,1,2,2.13l1.2,4.48c.37,1.39.73,2.72,1.08,4s.7,2.53,1,3.78.65,2.56,1,3.92h.3q.53-3.57.93-6.82t.76-6.38c.24-2.09.47-4.16.71-6.2s.47-4.13.7-6.24a9.21,9.21,0,0,1,4.62-1.23,7.25,7.25,0,0,1,3.75.94,3.36,3.36,0,0,1,1.58,3.16c0,.86-.09,2.08-.26,3.66s-.41,3.35-.7,5.3-.64,4-1,6.14-.8,4.2-1.23,6.15-.87,3.72-1.31,5.3a27.63,27.63,0,0,1-1.26,3.66,7,7,0,0,1-2.87,1.35,16.06,16.06,0,0,1-4.1.52,12.93,12.93,0,0,1-4.65-.73,3.49,3.49,0,0,1-2.32-2.08q-.75-2.34-1.64-5.56c-.58-2.15-1.21-4.51-1.87-7.08-.55,2.53-1.11,5-1.7,7.43s-1.11,4.47-1.58,6.15a6.78,6.78,0,0,1-2.63,1.35,13.47,13.47,0,0,1-3.87.52,14.65,14.65,0,0,1-4.77-.73,4.48,4.48,0,0,1-2.78-2.08,20.15,20.15,0,0,1-1.14-3.13q-.62-2.08-1.26-4.74t-1.32-5.77q-.66-3.1-1.22-6.21t-1-6c-.31-2-.55-3.78-.7-5.42a8.13,8.13,0,0,1,2.28-1.4,7.77,7.77,0,0,1,3.16-.65,6.35,6.35,0,0,1,3.66,1A4.5,4.5,0,0,1,120,104.4q.93,6,1.55,9.95t1,6.53c.26,1.69.44,3,.56,4s.23,1.68.35,2.22h.3c.34-1.56.68-3,1-4.33s.63-2.66,1-4,.67-2.79,1-4.33S127.49,111.07,127.88,109.08Z" transform="translate(-8.86 -7.37)"/><path class="cls-1" d="M188.48,121.51a17.36,17.36,0,0,1-1.09,6.37,12.84,12.84,0,0,1-3.09,4.7,13.21,13.21,0,0,1-4.76,2.89,18.44,18.44,0,0,1-6.17,1,17.55,17.55,0,0,1-6.17-1,13.62,13.62,0,0,1-4.75-3,13.27,13.27,0,0,1-3.09-4.7,16.83,16.83,0,0,1-1.09-6.23,16.65,16.65,0,0,1,1.09-6.17,13.27,13.27,0,0,1,3.09-4.7,13.48,13.48,0,0,1,4.75-3,17.55,17.55,0,0,1,6.17-1,17,17,0,0,1,6.17,1.07,13.88,13.88,0,0,1,4.76,3,13.18,13.18,0,0,1,3.09,4.7A16.44,16.44,0,0,1,188.48,121.51Zm-20.18,0a9.13,9.13,0,0,0,1.35,5.39,4.42,4.42,0,0,0,3.78,1.88,4.22,4.22,0,0,0,3.72-1.91,9.4,9.4,0,0,0,1.3-5.36,9.08,9.08,0,0,0-1.33-5.33,4.67,4.67,0,0,0-7.49,0A9.08,9.08,0,0,0,168.3,121.51Z" transform="translate(-8.86 -7.37)"/><path class="cls-1" d="M202.58,135.8a13.49,13.49,0,0,1-1.84.35,18.44,18.44,0,0,1-2.61.18,13.38,13.38,0,0,1-2.31-.18,4,4,0,0,1-1.73-.7A3.34,3.34,0,0,1,193,134a6.34,6.34,0,0,1-.38-2.38V114.08a5,5,0,0,1,.5-2.31,5.53,5.53,0,0,1,1.43-1.73,10.93,10.93,0,0,1,2.31-1.37,25.65,25.65,0,0,1,3-1.09,26.11,26.11,0,0,1,3.28-.73,22.76,22.76,0,0,1,3.39-.26,8,8,0,0,1,4.45,1.08,3.91,3.91,0,0,1,1.64,3.54,5.8,5.8,0,0,1-.23,1.61,7.23,7.23,0,0,1-.59,1.44c-.82,0-1.66,0-2.51.11s-1.7.2-2.52.36-1.59.32-2.31.49a10,10,0,0,0-1.85.62Z" transform="translate(-8.86 -7.37)"/><path class="cls-1" d="M243.33,130.77a7.3,7.3,0,0,1-1.61,4.21,4.89,4.89,0,0,1-3.84,1.47,6.21,6.21,0,0,1-3.33-.91,13.1,13.1,0,0,1-3.16-3.07l-5.8-7.26v10.65c-.43.08-1.06.19-1.9.32a15.48,15.48,0,0,1-2.55.21,13.38,13.38,0,0,1-2.31-.18,4,4,0,0,1-1.73-.7,3.34,3.34,0,0,1-1.08-1.43,6.14,6.14,0,0,1-.38-2.38V97.81a17.31,17.31,0,0,1,1.9-.38,15.48,15.48,0,0,1,2.55-.21,13.38,13.38,0,0,1,2.31.18,4,4,0,0,1,1.73.7,3.34,3.34,0,0,1,1.08,1.43,6.34,6.34,0,0,1,.38,2.38v15.45l10.07-10.3a8.1,8.1,0,0,1,4.89,1.35,4,4,0,0,1,1.84,3.39,4.43,4.43,0,0,1-.29,1.61,5.86,5.86,0,0,1-.91,1.49,12.42,12.42,0,0,1-1.58,1.61c-.64.57-1.39,1.22-2.25,2L234,121.4Z" transform="translate(-8.86 -7.37)"/><path class="cls-1" d="M246.61,100a5.14,5.14,0,0,1,1.49-3.75,5.89,5.89,0,0,1,7.9,0,5.44,5.44,0,0,1,0,7.5,5.89,5.89,0,0,1-7.9,0A5.14,5.14,0,0,1,246.61,100ZM257,135.79l-1.91.33a16.62,16.62,0,0,1-2.54.2,13.58,13.58,0,0,1-2.32-.18,3.86,3.86,0,0,1-1.72-.7,3.44,3.44,0,0,1-1.09-1.43,6.32,6.32,0,0,1-.38-2.37V107.12l1.91-.33a16.52,16.52,0,0,1,2.54-.2,14.75,14.75,0,0,1,2.32.17,4,4,0,0,1,1.72.71,3.44,3.44,0,0,1,1.09,1.43,6.32,6.32,0,0,1,.38,2.37Z" transform="translate(-8.86 -7.37)"/><path class="cls-1" d="M280.21,117.86a3.26,3.26,0,0,0-1-2.67,4.25,4.25,0,0,0-2.78-.84,9,9,0,0,0-2.31.29,5.77,5.77,0,0,0-2,.88v20.31a13.81,13.81,0,0,1-1.84.35,18.44,18.44,0,0,1-2.61.18,13.38,13.38,0,0,1-2.31-.18,4,4,0,0,1-1.73-.7,3.34,3.34,0,0,1-1.08-1.43,6.14,6.14,0,0,1-.38-2.38V114.11a4.48,4.48,0,0,1,.67-2.57,7,7,0,0,1,1.85-1.82,16.44,16.44,0,0,1,5-2.28,23.73,23.73,0,0,1,6.7-.88q6.62,0,10.19,2.9a9.78,9.78,0,0,1,3.57,8.05v18.32a13.49,13.49,0,0,1-1.84.35,18.44,18.44,0,0,1-2.61.18,13.38,13.38,0,0,1-2.31-.18,4,4,0,0,1-1.73-.7,3.34,3.34,0,0,1-1.08-1.43,6.14,6.14,0,0,1-.38-2.38Z" transform="translate(-8.86 -7.37)"/><path class="cls-1" d="M309,106.56a20.12,20.12,0,0,1,6.06.85,16.12,16.12,0,0,1,4.6,2.19,7.24,7.24,0,0,1,1.84,1.82,4.48,4.48,0,0,1,.67,2.57v20.49a11.49,11.49,0,0,1-1.17,5.36,10.8,10.8,0,0,1-3.19,3.75,13.61,13.61,0,0,1-4.74,2.19,23.15,23.15,0,0,1-5.82.7,20,20,0,0,1-8.38-1.43,4.83,4.83,0,0,1-3-4.65,4.88,4.88,0,0,1,.55-2.37,5,5,0,0,1,1.26-1.56,20.13,20.13,0,0,0,3.84,1.59,15.54,15.54,0,0,0,4.42.64,10.16,10.16,0,0,0,5-1.06,3.6,3.6,0,0,0,1.88-3.39v-.94a14.44,14.44,0,0,1-5.86,1.06,15.91,15.91,0,0,1-5-.79,11.29,11.29,0,0,1-4.16-2.46,12,12,0,0,1-2.87-4.31,16.43,16.43,0,0,1-1.08-6.26,15.49,15.49,0,0,1,1.14-6.2,12,12,0,0,1,3.16-4.37,13.2,13.2,0,0,1,4.8-2.57A20.55,20.55,0,0,1,309,106.56Zm3.63,8.49a5.74,5.74,0,0,0-1.2-.47,6.89,6.89,0,0,0-2-.23,5.43,5.43,0,0,0-4.3,1.61,6.65,6.65,0,0,0-1.44,4.59q0,3.39,1.44,4.89a4.85,4.85,0,0,0,3.66,1.49,6,6,0,0,0,3.8-1.11Z" transform="translate(-8.86 -7.37)"/></svg>